<svg xmlns="http://www.w3.org/2000/svg" xmlns:xlink="http://www.w3.org/1999/xlink" style="font-family:&quot;Lucida Grande&quot;,&quot;Lucida Sans Unicode&quot;,Arial,Helvetica,sans-serif;font-size:12px" width="600" height="600" class="highcharts-root" version="1.1" viewBox="0 0 600 600"><desc>Created with Highcharts 7.0.1</desc><defs><clipPath id="highcharts-uwu0c3z-30"><rect width="469" height="436" x="0" y="0" fill="none"/></clipPath></defs><rect width="600" height="600" x="0" y="0" fill="#fff" class="highcharts-background" rx="0" ry="0"/><rect width="436" height="469" x="154" y="71" fill="none" class="highcharts-plot-background"/><g class="highcharts-grid highcharts-xaxis-grid" data-z-index="1"><path fill="none" d="M 154 91.5 L 590 91.5" class="highcharts-grid-line" data-z-index="1" opacity="1"/><path fill="none" d="M 154 110.5 L 590 110.5" class="highcharts-grid-line" data-z-index="1" opacity="1"/><path fill="none" d="M 154 130.5 L 590 130.5" class="highcharts-grid-line" data-z-index="1" opacity="1"/><path fill="none" d="M 154 149.5 L 590 149.5" class="highcharts-grid-line" data-z-index="1" opacity="1"/><path fill="none" d="M 154 169.5 L 590 169.5" class="highcharts-grid-line" data-z-index="1" opacity="1"/><path fill="none" d="M 154 188.5 L 590 188.5" class="highcharts-grid-line" data-z-index="1" opacity="1"/><path fill="none" d="M 154 208.5 L 590 208.5" class="highcharts-grid-line" data-z-index="1" opacity="1"/><path fill="none" d="M 154 227.5 L 590 227.5" class="highcharts-grid-line" data-z-index="1" opacity="1"/><path fill="none" d="M 154 247.5 L 590 247.5" class="highcharts-grid-line" data-z-index="1" opacity="1"/><path fill="none" d="M 154 266.5 L 590 266.5" class="highcharts-grid-line" data-z-index="1" opacity="1"/><path fill="none" d="M 154 286.5 L 590 286.5" class="highcharts-grid-line" data-z-index="1" opacity="1"/><path fill="none" d="M 154 306.5 L 590 306.5" class="highcharts-grid-line" data-z-index="1" opacity="1"/><path fill="none" d="M 154 325.5 L 590 325.5" class="highcharts-grid-line" data-z-index="1" opacity="1"/><path fill="none" d="M 154 345.5 L 590 345.5" class="highcharts-grid-line" data-z-index="1" opacity="1"/><path fill="none" d="M 154 364.5 L 590 364.5" class="highcharts-grid-line" data-z-index="1" opacity="1"/><path fill="none" d="M 154 384.5 L 590 384.5" class="highcharts-grid-line" data-z-index="1" opacity="1"/><path fill="none" d="M 154 403.5 L 590 403.5" class="highcharts-grid-line" data-z-index="1" opacity="1"/><path fill="none" d="M 154 423.5 L 590 423.5" class="highcharts-grid-line" data-z-index="1" opacity="1"/><path fill="none" d="M 154 442.5 L 590 442.5" class="highcharts-grid-line" data-z-index="1" opacity="1"/><path fill="none" d="M 154 462.5 L 590 462.5" class="highcharts-grid-line" data-z-index="1" opacity="1"/><path fill="none" d="M 154 481.5 L 590 481.5" class="highcharts-grid-line" data-z-index="1" opacity="1"/><path fill="none" d="M 154 501.5 L 590 501.5" class="highcharts-grid-line" data-z-index="1" opacity="1"/><path fill="none" d="M 154 520.5 L 590 520.5" class="highcharts-grid-line" data-z-index="1" opacity="1"/><path fill="none" d="M 154 540.5 L 590 540.5" class="highcharts-grid-line" data-z-index="1" opacity="1"/><path fill="none" d="M 154 71.5 L 590 71.5" class="highcharts-grid-line" data-z-index="1" opacity="1"/></g><g class="highcharts-grid highcharts-yaxis-grid" data-z-index="1"><path fill="none" stroke="#e6e6e6" stroke-width="1" d="M 153.5 71 L 153.5 540" class="highcharts-grid-line" data-z-index="1" opacity="1"/><path fill="none" stroke="#e6e6e6" stroke-width="1" d="M 208.5 71 L 208.5 540" class="highcharts-grid-line" data-z-index="1" opacity="1"/><path fill="none" stroke="#e6e6e6" stroke-width="1" d="M 262.5 71 L 262.5 540" class="highcharts-grid-line" data-z-index="1" opacity="1"/><path fill="none" stroke="#e6e6e6" stroke-width="1" d="M 317.5 71 L 317.5 540" class="highcharts-grid-line" data-z-index="1" opacity="1"/><path fill="none" stroke="#e6e6e6" stroke-width="1" d="M 371.5 71 L 371.5 540" class="highcharts-grid-line" data-z-index="1" opacity="1"/><path fill="none" stroke="#e6e6e6" stroke-width="1" d="M 426.5 71 L 426.5 540" class="highcharts-grid-line" data-z-index="1" opacity="1"/><path fill="none" stroke="#e6e6e6" stroke-width="1" d="M 480.5 71 L 480.5 540" class="highcharts-grid-line" data-z-index="1" opacity="1"/><path fill="none" stroke="#e6e6e6" stroke-width="1" d="M 535.5 71 L 535.5 540" class="highcharts-grid-line" data-z-index="1" opacity="1"/><path fill="none" stroke="#e6e6e6" stroke-width="1" d="M 590.5 71 L 590.5 540" class="highcharts-grid-line" data-z-index="1" opacity="1"/></g><rect width="436" height="469" x="154" y="71" fill="none" class="highcharts-plot-border" data-z-index="1"/><g class="highcharts-axis highcharts-xaxis" data-z-index="2"><path fill="none" stroke="#ccd6eb" stroke-width="1" d="M 154 91.5 L 144 91.5" class="highcharts-tick" opacity="1"/><path fill="none" stroke="#ccd6eb" stroke-width="1" d="M 154 110.5 L 144 110.5" class="highcharts-tick" opacity="1"/><path fill="none" stroke="#ccd6eb" stroke-width="1" d="M 154 130.5 L 144 130.5" class="highcharts-tick" opacity="1"/><path fill="none" stroke="#ccd6eb" stroke-width="1" d="M 154 149.5 L 144 149.5" class="highcharts-tick" opacity="1"/><path fill="none" stroke="#ccd6eb" stroke-width="1" d="M 154 169.5 L 144 169.5" class="highcharts-tick" opacity="1"/><path fill="none" stroke="#ccd6eb" stroke-width="1" d="M 154 188.5 L 144 188.5" class="highcharts-tick" opacity="1"/><path fill="none" stroke="#ccd6eb" stroke-width="1" d="M 154 208.5 L 144 208.5" class="highcharts-tick" opacity="1"/><path fill="none" stroke="#ccd6eb" stroke-width="1" d="M 154 227.5 L 144 227.5" class="highcharts-tick" opacity="1"/><path fill="none" stroke="#ccd6eb" stroke-width="1" d="M 154 247.5 L 144 247.5" class="highcharts-tick" opacity="1"/><path fill="none" stroke="#ccd6eb" stroke-width="1" d="M 154 266.5 L 144 266.5" class="highcharts-tick" opacity="1"/><path fill="none" stroke="#ccd6eb" stroke-width="1" d="M 154 286.5 L 144 286.5" class="highcharts-tick" opacity="1"/><path fill="none" stroke="#ccd6eb" stroke-width="1" d="M 154 306.5 L 144 306.5" class="highcharts-tick" opacity="1"/><path fill="none" stroke="#ccd6eb" stroke-width="1" d="M 154 325.5 L 144 325.5" class="highcharts-tick" opacity="1"/><path fill="none" stroke="#ccd6eb" stroke-width="1" d="M 154 345.5 L 144 345.5" class="highcharts-tick" opacity="1"/><path fill="none" stroke="#ccd6eb" stroke-width="1" d="M 154 364.5 L 144 364.5" class="highcharts-tick" opacity="1"/><path fill="none" stroke="#ccd6eb" stroke-width="1" d="M 154 384.5 L 144 384.5" class="highcharts-tick" opacity="1"/><path fill="none" stroke="#ccd6eb" stroke-width="1" d="M 154 403.5 L 144 403.5" class="highcharts-tick" opacity="1"/><path fill="none" stroke="#ccd6eb" stroke-width="1" d="M 154 423.5 L 144 423.5" class="highcharts-tick" opacity="1"/><path fill="none" stroke="#ccd6eb" stroke-width="1" d="M 154 442.5 L 144 442.5" class="highcharts-tick" opacity="1"/><path fill="none" stroke="#ccd6eb" stroke-width="1" d="M 154 462.5 L 144 462.5" class="highcharts-tick" opacity="1"/><path fill="none" stroke="#ccd6eb" stroke-width="1" d="M 154 481.5 L 144 481.5" class="highcharts-tick" opacity="1"/><path fill="none" stroke="#ccd6eb" stroke-width="1" d="M 154 501.5 L 144 501.5" class="highcharts-tick" opacity="1"/><path fill="none" stroke="#ccd6eb" stroke-width="1" d="M 154 520.5 L 144 520.5" class="highcharts-tick" opacity="1"/><path fill="none" stroke="#ccd6eb" stroke-width="1" d="M 154 540.5 L 144 540.5" class="highcharts-tick" opacity="1"/><path fill="none" stroke="#ccd6eb" stroke-width="1" d="M 154 70.5 L 144 70.5" class="highcharts-tick" opacity="1"/><path fill="none" stroke="#ccd6eb" stroke-width="1" d="M 153.5 71 L 153.5 540" class="highcharts-axis-line" data-z-index="7"/></g><g class="highcharts-axis highcharts-yaxis" data-z-index="2"><text x="590" y="579" class="highcharts-axis-title" data-z-index="7" text-anchor="end" transform="translate(0,0)" style="color:#666;fill:#666"><tspan>Issues</tspan></text><path fill="none" d="M 154 540 L 590 540" class="highcharts-axis-line" data-z-index="7"/></g><g class="highcharts-series-group" data-z-index="3"><g class="highcharts-series highcharts-series-0 highcharts-bar-series highcharts-color-0" clip-path="url(#highcharts-uwu0c3z-30)" data-z-index=".1" transform="translate(590,540) rotate(90) scale(-1,1) scale(1 1)"><rect width="10" height="1" x="454.5" y="435.5" fill="#7cb5ec" stroke="#fff" stroke-width="1" class="highcharts-point highcharts-color-0"/><rect width="10" height="383" x="434.5" y="53.5" fill="#7cb5ec" stroke="#fff" stroke-width="1" class="highcharts-point highcharts-color-0"/><rect width="10" height="81" x="414.5" y="355.5" fill="#7cb5ec" stroke="#fff" stroke-width="1" class="highcharts-point highcharts-color-0"/><rect width="10" height="144" x="395.5" y="292.5" fill="#7cb5ec" stroke="#fff" stroke-width="1" class="highcharts-point highcharts-color-0"/><rect width="10" height="23" x="375.5" y="413.5" fill="#7cb5ec" stroke="#fff" stroke-width="1" class="highcharts-point highcharts-color-0"/><rect width="10" height="56" x="356.5" y="380.5" fill="#7cb5ec" stroke="#fff" stroke-width="1" class="highcharts-point highcharts-color-0"/><rect width="10" height="96" x="336.5" y="340.5" fill="#7cb5ec" stroke="#fff" stroke-width="1" class="highcharts-point highcharts-color-0"/><rect width="10" height="155" x="317.5" y="281.5" fill="#7cb5ec" stroke="#fff" stroke-width="1" class="highcharts-point highcharts-color-0"/><rect width="10" height="92" x="297.5" y="344.5" fill="#7cb5ec" stroke="#fff" stroke-width="1" class="highcharts-point highcharts-color-0"/><rect width="10" height="10" x="278.5" y="426.5" fill="#7cb5ec" stroke="#fff" stroke-width="1" class="highcharts-point highcharts-color-0"/><rect width="10" height="10" x="258.5" y="426.5" fill="#7cb5ec" stroke="#fff" stroke-width="1" class="highcharts-point highcharts-color-0"/><rect width="10" height="8" x="239.5" y="428.5" fill="#7cb5ec" stroke="#fff" stroke-width="1" class="highcharts-point highcharts-color-0"/><rect width="10" height="8" x="219.5" y="428.5" fill="#7cb5ec" stroke="#fff" stroke-width="1" class="highcharts-point highcharts-color-0"/><rect width="10" height="166" x="199.5" y="270.5" fill="#7cb5ec" stroke="#fff" stroke-width="1" class="highcharts-point highcharts-color-0"/><rect width="10" height="14" x="180.5" y="422.5" fill="#7cb5ec" stroke="#fff" stroke-width="1" class="highcharts-point highcharts-color-0"/><rect width="10" height="83" x="160.5" y="353.5" fill="#7cb5ec" stroke="#fff" stroke-width="1" class="highcharts-point highcharts-color-0"/><rect width="10" height="141" x="141.5" y="295.5" fill="#7cb5ec" stroke="#fff" stroke-width="1" class="highcharts-point highcharts-color-0"/><rect width="10" height="92" x="121.5" y="344.5" fill="#7cb5ec" stroke="#fff" stroke-width="1" class="highcharts-point highcharts-color-0"/><rect width="10" height="99" x="102.5" y="337.5" fill="#7cb5ec" stroke="#fff" stroke-width="1" class="highcharts-point highcharts-color-0"/><rect width="10" height="7" x="82.5" y="429.5" fill="#7cb5ec" stroke="#fff" stroke-width="1" class="highcharts-point highcharts-color-0"/><rect width="10" height="6" x="63.5" y="430.5" fill="#7cb5ec" stroke="#fff" stroke-width="1" class="highcharts-point highcharts-color-0"/><rect width="10" height="117" x="43.5" y="319.5" fill="#7cb5ec" stroke="#fff" stroke-width="1" class="highcharts-point highcharts-color-0"/><rect width="10" height="26" x="24.5" y="410.5" fill="#7cb5ec" stroke="#fff" stroke-width="1" class="highcharts-point highcharts-color-0"/><rect width="10" height="183" x="4.5" y="253.5" fill="#7cb5ec" stroke="#fff" stroke-width="1" class="highcharts-point highcharts-color-0"/></g></g><text x="300" y="24" class="highcharts-title" data-z-index="4" text-anchor="middle" style="color:#333;font-size:18px;fill:#333"><tspan>All products issues number on bugzilla</tspan></text><text x="300" y="52" class="highcharts-subtitle" data-z-index="4" text-anchor="middle" style="color:#666;fill:#666"><tspan>Source: </tspan><tspan dx="0">bugzilla</tspan></text><g class="highcharts-data-labels highcharts-series-0 highcharts-bar-series highcharts-color-0" data-z-index="6" visibility="visible"><g class="highcharts-label highcharts-data-label highcharts-data-label-color-0" data-z-index="1"><text x="5" y="16" data-z-index="1" transform="translate(154,71) scale(1 1) translate(1,-2)" style="font-size:11px;font-weight:700;color:#000;fill:#000"><tspan x="5" y="16" fill="#FFF" stroke="#FFF" stroke-linejoin="round" stroke-width="2" class="highcharts-text-outline">1</tspan><tspan x="5" y="16">1</tspan></text></g><g class="highcharts-label highcharts-data-label highcharts-data-label-color-0" data-z-index="1"><text x="5" y="16" data-z-index="1" transform="translate(154,71) scale(1 1) translate(383,18)" style="font-size:11px;font-weight:700;color:#000;fill:#000"><tspan x="5" y="16" fill="#FFF" stroke="#FFF" stroke-linejoin="round" stroke-width="2" class="highcharts-text-outline">702</tspan><tspan x="5" y="16">702</tspan></text></g><g class="highcharts-label highcharts-data-label highcharts-data-label-color-0" data-z-index="1"><text x="5" y="16" data-z-index="1" transform="translate(154,71) scale(1 1) translate(81,38)" style="font-size:11px;font-weight:700;color:#000;fill:#000"><tspan x="5" y="16" fill="#FFF" stroke="#FFF" stroke-linejoin="round" stroke-width="2" class="highcharts-text-outline">148</tspan><tspan x="5" y="16">148</tspan></text></g><g class="highcharts-label highcharts-data-label highcharts-data-label-color-0" data-z-index="1"><text x="5" y="16" data-z-index="1" transform="translate(154,71) scale(1 1) translate(144,57)" style="font-size:11px;font-weight:700;color:#000;fill:#000"><tspan x="5" y="16" fill="#FFF" stroke="#FFF" stroke-linejoin="round" stroke-width="2" class="highcharts-text-outline">265</tspan><tspan x="5" y="16">265</tspan></text></g><g class="highcharts-label highcharts-data-label highcharts-data-label-color-0" data-z-index="1"><text x="5" y="16" data-z-index="1" transform="translate(154,71) scale(1 1) translate(23,77)" style="font-size:11px;font-weight:700;color:#000;fill:#000"><tspan x="5" y="16" fill="#FFF" stroke="#FFF" stroke-linejoin="round" stroke-width="2" class="highcharts-text-outline">43</tspan><tspan x="5" y="16">43</tspan></text></g><g class="highcharts-label highcharts-data-label highcharts-data-label-color-0" data-z-index="1"><text x="5" y="16" data-z-index="1" transform="translate(154,71) scale(1 1) translate(56,96)" style="font-size:11px;font-weight:700;color:#000;fill:#000"><tspan x="5" y="16" fill="#FFF" stroke="#FFF" stroke-linejoin="round" stroke-width="2" class="highcharts-text-outline">103</tspan><tspan x="5" y="16">103</tspan></text></g><g class="highcharts-label highcharts-data-label highcharts-data-label-color-0" data-z-index="1"><text x="5" y="16" data-z-index="1" transform="translate(154,71) scale(1 1) translate(96,116)" style="font-size:11px;font-weight:700;color:#000;fill:#000"><tspan x="5" y="16" fill="#FFF" stroke="#FFF" stroke-linejoin="round" stroke-width="2" class="highcharts-text-outline">177</tspan><tspan x="5" y="16">177</tspan></text></g><g class="highcharts-label highcharts-data-label highcharts-data-label-color-0" data-z-index="1"><text x="5" y="16" data-z-index="1" transform="translate(154,71) scale(1 1) translate(155,135)" style="font-size:11px;font-weight:700;color:#000;fill:#000"><tspan x="5" y="16" fill="#FFF" stroke="#FFF" stroke-linejoin="round" stroke-width="2" class="highcharts-text-outline">285</tspan><tspan x="5" y="16">285</tspan></text></g><g class="highcharts-label highcharts-data-label highcharts-data-label-color-0" data-z-index="1"><text x="5" y="16" data-z-index="1" transform="translate(154,71) scale(1 1) translate(92,155)" style="font-size:11px;font-weight:700;color:#000;fill:#000"><tspan x="5" y="16" fill="#FFF" stroke="#FFF" stroke-linejoin="round" stroke-width="2" class="highcharts-text-outline">168</tspan><tspan x="5" y="16">168</tspan></text></g><g class="highcharts-label highcharts-data-label highcharts-data-label-color-0" data-z-index="1"><text x="5" y="16" data-z-index="1" transform="translate(154,71) scale(1 1) translate(10,174)" style="font-size:11px;font-weight:700;color:#000;fill:#000"><tspan x="5" y="16" fill="#FFF" stroke="#FFF" stroke-linejoin="round" stroke-width="2" class="highcharts-text-outline">18</tspan><tspan x="5" y="16">18</tspan></text></g><g class="highcharts-label highcharts-data-label highcharts-data-label-color-0" data-z-index="1"><text x="5" y="16" data-z-index="1" transform="translate(154,71) scale(1 1) translate(10,194)" style="font-size:11px;font-weight:700;color:#000;fill:#000"><tspan x="5" y="16" fill="#FFF" stroke="#FFF" stroke-linejoin="round" stroke-width="2" class="highcharts-text-outline">19</tspan><tspan x="5" y="16">19</tspan></text></g><g class="highcharts-label highcharts-data-label highcharts-data-label-color-0" data-z-index="1"><text x="5" y="16" data-z-index="1" transform="translate(154,71) scale(1 1) translate(8,213)" style="font-size:11px;font-weight:700;color:#000;fill:#000"><tspan x="5" y="16" fill="#FFF" stroke="#FFF" stroke-linejoin="round" stroke-width="2" class="highcharts-text-outline">14</tspan><tspan x="5" y="16">14</tspan></text></g><g class="highcharts-label highcharts-data-label highcharts-data-label-color-0" data-z-index="1"><text x="5" y="16" data-z-index="1" transform="translate(154,71) scale(1 1) translate(8,233)" style="font-size:11px;font-weight:700;color:#000;fill:#000"><tspan x="5" y="16" fill="#FFF" stroke="#FFF" stroke-linejoin="round" stroke-width="2" class="highcharts-text-outline">14</tspan><tspan x="5" y="16">14</tspan></text></g><g class="highcharts-label highcharts-data-label highcharts-data-label-color-0" data-z-index="1"><text x="5" y="16" data-z-index="1" transform="translate(154,71) scale(1 1) translate(166,253)" style="font-size:11px;font-weight:700;color:#000;fill:#000"><tspan x="5" y="16" fill="#FFF" stroke="#FFF" stroke-linejoin="round" stroke-width="2" class="highcharts-text-outline">305</tspan><tspan x="5" y="16">305</tspan></text></g><g class="highcharts-label highcharts-data-label highcharts-data-label-color-0" data-z-index="1"><text x="5" y="16" data-z-index="1" transform="translate(154,71) scale(1 1) translate(14,272)" style="font-size:11px;font-weight:700;color:#000;fill:#000"><tspan x="5" y="16" fill="#FFF" stroke="#FFF" stroke-linejoin="round" stroke-width="2" class="highcharts-text-outline">26</tspan><tspan x="5" y="16">26</tspan></text></g><g class="highcharts-label highcharts-data-label highcharts-data-label-color-0" data-z-index="1"><text x="5" y="16" data-z-index="1" transform="translate(154,71) scale(1 1) translate(83,292)" style="font-size:11px;font-weight:700;color:#000;fill:#000"><tspan x="5" y="16" fill="#FFF" stroke="#FFF" stroke-linejoin="round" stroke-width="2" class="highcharts-text-outline">153</tspan><tspan x="5" y="16">153</tspan></text></g><g class="highcharts-label highcharts-data-label highcharts-data-label-color-0" data-z-index="1"><text x="5" y="16" data-z-index="1" transform="translate(154,71) scale(1 1) translate(141,311)" style="font-size:11px;font-weight:700;color:#000;fill:#000"><tspan x="5" y="16" fill="#FFF" stroke="#FFF" stroke-linejoin="round" stroke-width="2" class="highcharts-text-outline">258</tspan><tspan x="5" y="16">258</tspan></text></g><g class="highcharts-label highcharts-data-label highcharts-data-label-color-0" data-z-index="1"><text x="5" y="16" data-z-index="1" transform="translate(154,71) scale(1 1) translate(92,331)" style="font-size:11px;font-weight:700;color:#000;fill:#000"><tspan x="5" y="16" fill="#FFF" stroke="#FFF" stroke-linejoin="round" stroke-width="2" class="highcharts-text-outline">169</tspan><tspan x="5" y="16">169</tspan></text></g><g class="highcharts-label highcharts-data-label highcharts-data-label-color-0" data-z-index="1"><text x="5" y="16" data-z-index="1" transform="translate(154,71) scale(1 1) translate(99,350)" style="font-size:11px;font-weight:700;color:#000;fill:#000"><tspan x="5" y="16" fill="#FFF" stroke="#FFF" stroke-linejoin="round" stroke-width="2" class="highcharts-text-outline">182</tspan><tspan x="5" y="16">182</tspan></text></g><g class="highcharts-label highcharts-data-label highcharts-data-label-color-0" data-z-index="1"><text x="5" y="16" data-z-index="1" transform="translate(154,71) scale(1 1) translate(7,370)" style="font-size:11px;font-weight:700;color:#000;fill:#000"><tspan x="5" y="16" fill="#FFF" stroke="#FFF" stroke-linejoin="round" stroke-width="2" class="highcharts-text-outline">13</tspan><tspan x="5" y="16">13</tspan></text></g><g class="highcharts-label highcharts-data-label highcharts-data-label-color-0" data-z-index="1"><text x="5" y="16" data-z-index="1" transform="translate(154,71) scale(1 1) translate(6,389)" style="font-size:11px;font-weight:700;color:#000;fill:#000"><tspan x="5" y="16" fill="#FFF" stroke="#FFF" stroke-linejoin="round" stroke-width="2" class="highcharts-text-outline">11</tspan><tspan x="5" y="16">11</tspan></text></g><g class="highcharts-label highcharts-data-label highcharts-data-label-color-0" data-z-index="1"><text x="5" y="16" data-z-index="1" transform="translate(154,71) scale(1 1) translate(117,409)" style="font-size:11px;font-weight:700;color:#000;fill:#000"><tspan x="5" y="16" fill="#FFF" stroke="#FFF" stroke-linejoin="round" stroke-width="2" class="highcharts-text-outline">214</tspan><tspan x="5" y="16">214</tspan></text></g><g class="highcharts-label highcharts-data-label highcharts-data-label-color-0" data-z-index="1"><text x="5" y="16" data-z-index="1" transform="translate(154,71) scale(1 1) translate(26,428)" style="font-size:11px;font-weight:700;color:#000;fill:#000"><tspan x="5" y="16" fill="#FFF" stroke="#FFF" stroke-linejoin="round" stroke-width="2" class="highcharts-text-outline">47</tspan><tspan x="5" y="16">47</tspan></text></g><g class="highcharts-label highcharts-data-label highcharts-data-label-color-0" data-z-index="1"><text x="5" y="16" data-z-index="1" transform="translate(154,71) scale(1 1) translate(183,448)" style="font-size:11px;font-weight:700;color:#000;fill:#000"><tspan x="5" y="16" fill="#FFF" stroke="#FFF" stroke-linejoin="round" stroke-width="2" class="highcharts-text-outline">335</tspan><tspan x="5" y="16">335</tspan></text></g></g><g class="highcharts-legend" data-z-index="7" transform="translate(423,90)"><rect width="126" height="28" x=".5" y=".5" fill="none" stroke="#000" stroke-opacity=".05" stroke-width="5" class="highcharts-legend-box highcharts-shadow" rx="0" ry="0" transform="translate(1, 1)" visibility="visible"/><rect width="126" height="28" x=".5" y=".5" fill="none" stroke="#000" stroke-opacity=".1" stroke-width="3" class="highcharts-legend-box highcharts-shadow" rx="0" ry="0" transform="translate(1, 1)" visibility="visible"/><rect width="126" height="28" x=".5" y=".5" fill="none" stroke="#000" stroke-opacity=".15" stroke-width="1" class="highcharts-legend-box highcharts-shadow" rx="0" ry="0" transform="translate(1, 1)" visibility="visible"/><rect width="126" height="28" x=".5" y=".5" fill="#FFF" stroke="#999" stroke-width="1" class="highcharts-legend-box" rx="0" ry="0" visibility="visible"/><g data-z-index="1"><g><g class="highcharts-legend-item highcharts-bar-series highcharts-color-0 highcharts-series-0" data-z-index="1" transform="translate(8,3)"><text x="21" y="15" data-z-index="2" text-anchor="start" style="color:#333;cursor:pointer;font-size:12px;font-weight:700;fill:#333"><tspan>Issues Number</tspan></text><rect width="12" height="12" x="2" y="4" fill="#7cb5ec" class="highcharts-point" data-z-index="3" rx="6" ry="6"/></g></g></g></g><g class="highcharts-axis-labels highcharts-xaxis-labels" data-z-index="7"><text x="139" y="85" opacity="1" text-anchor="end" transform="translate(0,0)" style="color:#666;cursor:default;font-size:11px;fill:#666">SBKHZHAU7B</text><text x="139" y="104" opacity="1" text-anchor="end" transform="translate(0,0)" style="color:#666;cursor:default;font-size:11px;fill:#666">VNHUFH8PQNC</text><text x="139" y="124" opacity="1" text-anchor="end" transform="translate(0,0)" style="color:#666;cursor:default;font-size:11px;fill:#666">OQPFA400GS</text><text x="139" y="143" opacity="1" text-anchor="end" transform="translate(0,0)" style="color:#666;cursor:default;font-size:11px;fill:#666">QJSTGKM0KR4B3T</text><text x="139" y="163" opacity="1" text-anchor="end" transform="translate(0,0)" style="color:#666;cursor:default;font-size:11px;fill:#666">Y5Y9TUR2TDSWV2</text><text x="139" y="182" opacity="1" text-anchor="end" transform="translate(0,0)" style="color:#666;cursor:default;font-size:11px;fill:#666">A3KDH0XKY3I5JZ3Z4XP</text><text x="139" y="202" opacity="1" text-anchor="end" transform="translate(0,0)" style="color:#666;cursor:default;font-size:11px;fill:#666">NH3W279</text><text x="139" y="222" opacity="1" text-anchor="end" transform="translate(0,0)" style="color:#666;cursor:default;font-size:11px;fill:#666">FA13UL59EVGT7PF</text><text x="139" y="241" opacity="1" text-anchor="end" transform="translate(0,0)" style="color:#666;cursor:default;font-size:11px;fill:#666">4YZ1NIL30XCY0H</text><text x="139" y="261" opacity="1" text-anchor="end" transform="translate(0,0)" style="color:#666;cursor:default;font-size:11px;fill:#666">0R6JAZ0O7H8HMG8</text><text x="139" y="280" opacity="1" text-anchor="end" transform="translate(0,0)" style="color:#666;cursor:default;font-size:11px;fill:#666">1CXL937EEH4SK7FCBZ7</text><text x="139" y="300" opacity="1" text-anchor="end" transform="translate(0,0)" style="color:#666;cursor:default;font-size:11px;fill:#666">F4T2KASV6D2C3D</text><text x="139" y="319" opacity="1" text-anchor="end" transform="translate(0,0)" style="color:#666;cursor:default;font-size:11px;fill:#666">L9TZFVCBODOZ</text><text x="139" y="339" opacity="1" text-anchor="end" transform="translate(0,0)" style="color:#666;cursor:default;font-size:11px;fill:#666">EGXH8QJ75M6HSQMLIP</text><text x="139" y="358" opacity="1" text-anchor="end" transform="translate(0,0)" style="color:#666;cursor:default;font-size:11px;fill:#666">1XGYZIEQLT8M8K86Y3</text><text x="139" y="378" opacity="1" text-anchor="end" transform="translate(0,0)" style="color:#666;cursor:default;font-size:11px;fill:#666">RTH2UL5TDPC8AON</text><text x="139" y="397" opacity="1" text-anchor="end" transform="translate(0,0)" style="color:#666;cursor:default;font-size:11px;fill:#666">U30SHAL</text><text x="139" y="417" opacity="1" text-anchor="end" transform="translate(0,0)" style="color:#666;cursor:default;font-size:11px;fill:#666">0FH8UWA4PX8PXKT8W</text><text x="139" y="437" opacity="1" text-anchor="end" transform="translate(0,0)" style="color:#666;cursor:default;font-size:11px;fill:#666">DLCUT1QLCEZQKJ1SRF</text><text x="139" y="456" opacity="1" text-anchor="end" transform="translate(0,0)" style="color:#666;cursor:default;font-size:11px;fill:#666">DSPRP3W86E</text><text x="139" y="476" opacity="1" text-anchor="end" transform="translate(0,0)" style="color:#666;cursor:default;font-size:11px;fill:#666">DKPDM6V77LERSAJY</text><text x="139" y="495" opacity="1" text-anchor="end" transform="translate(0,0)" style="color:#666;cursor:default;font-size:11px;fill:#666">0527G4E</text><text x="139" y="515" opacity="1" text-anchor="end" transform="translate(0,0)" style="color:#666;cursor:default;font-size:11px;fill:#666">08KAAICWM</text><text x="139" y="534" opacity="1" text-anchor="end" transform="translate(0,0)" style="color:#666;cursor:default;font-size:11px;fill:#666">AXY3YWMDGILA32QS</text></g><g class="highcharts-axis-labels highcharts-yaxis-labels" data-z-index="7"><text x="154" y="559" opacity="1" text-anchor="middle" transform="translate(0,0)" style="color:#666;cursor:default;font-size:11px;fill:#666">0</text><text x="208.5" y="559" opacity="1" text-anchor="middle" transform="translate(0,0)" style="color:#666;cursor:default;font-size:11px;fill:#666">100</text><text x="263" y="559" opacity="1" text-anchor="middle" transform="translate(0,0)" style="color:#666;cursor:default;font-size:11px;fill:#666">200</text><text x="317.5" y="559" opacity="1" text-anchor="middle" transform="translate(0,0)" style="color:#666;cursor:default;font-size:11px;fill:#666">300</text><text x="372" y="559" opacity="1" text-anchor="middle" transform="translate(0,0)" style="color:#666;cursor:default;font-size:11px;fill:#666">400</text><text x="426.5" y="559" opacity="1" text-anchor="middle" transform="translate(0,0)" style="color:#666;cursor:default;font-size:11px;fill:#666">500</text><text x="481" y="559" opacity="1" text-anchor="middle" transform="translate(0,0)" style="color:#666;cursor:default;font-size:11px;fill:#666">600</text><text x="535.5" y="559" opacity="1" text-anchor="middle" transform="translate(0,0)" style="color:#666;cursor:default;font-size:11px;fill:#666">700</text><text x="579.547" y="559" opacity="1" text-anchor="middle" transform="translate(0,0)" style="color:#666;cursor:default;font-size:11px;fill:#666">800</text></g></svg>