<svg xmlns="http://www.w3.org/2000/svg" xmlns:ev="http://www.w3.org/2001/xml-events" xmlns:xlink="http://www.w3.org/1999/xlink" width="718.777" height="366.824" class="st14" color-interpolation-filters="sRGB" viewBox="0 0 539.083 275.118" xml:space="preserve"><style type="text/css">.st1,.st2{fill:#5b9bd5;stroke:#c7c8c8;stroke-width:.25}.st2{stroke:#fff}.st3{fill:#fff}.st4,.st5,.st6,.st7{stroke:#c7c8c8;stroke-width:.25}.st5{fill:#28669d}.st6{fill:#feffff}.st7{fill:#acccea}.st8,.st9{fill:#1e4a73;font-family:Calibri;font-size:1.5em}.st9{font-family:微软雅黑}.st10{font-family:Calibri;font-size:1em}.st11{marker-end:url(#mrkr13-58);marker-start:url(#mrkr13-56);stroke-linecap:round;stroke-linejoin:round;stroke-width:1}.st11,.st12,.st13{stroke:#5b9bd5}.st12{fill:#5b9bd5;fill-opacity:1;stroke-opacity:1;stroke-width:.28409090909091}.st13{marker-end:url(#mrkr4-64);stroke-linecap:round;stroke-linejoin:round;stroke-width:1}.st14{fill:none;fill-rule:evenodd;font-size:12px;overflow:visible;stroke-linecap:square;stroke-miterlimit:3}</style><defs id="Markers"><g id="lend13"><path style="stroke:none" d="M 3 1 L 0 0 L 3 -1 L 3 1"/></g><marker id="mrkr13-56" class="st12" markerUnits="strokeWidth" orient="auto" overflow="visible" refX="10.2"><use transform="scale(3.52)" xlink:href="#lend13"/></marker><marker id="mrkr13-58" class="st12" markerUnits="strokeWidth" orient="auto" overflow="visible" refX="-10.56"><use transform="scale(-3.52,-3.52)" xlink:href="#lend13"/></marker><g id="lend4"><path style="stroke:none" d="M 2 1 L 0 0 L 2 -1 L 2 1"/></g><marker id="mrkr4-64" class="st12" markerUnits="strokeWidth" orient="auto" overflow="visible" refX="-7.04"><use transform="scale(-3.52,-3.52)" xlink:href="#lend4"/></marker></defs><g><title>Page-1</title><g id="group1-1" transform="translate(0.25,-204.252)"><title>PC</title><g id="shape2-2" transform="translate(0,-4.72617)"><title>Sheet.2</title><path d="M48.01 257.71 L48.01 263.7 L51.62 263.7 L55.04 267.98 L70.87 267.98 L70.87 213.7 L48.01 213.7 L48.01 221.49 L57.81 221.49 L57.81 257.71 L48.01 257.71 ZM57.81 221.49 L3.53 221.49 L3.53 257.71 L57.81 257.71 L57.81 221.49 ZM60.73 275.12 L51.62 263.7 L9.11 263.7 L0 275.12 L60.73 275.12 ZM35.14 257.71 L25.59 257.71 L25.59 263.7 L35.14 263.7 L35.14 257.71 Z" class="st1"/></g><g id="shape3-4" transform="translate(7.05282,-25.393)"><title>Sheet.3</title><path d="M47.32 245.75 L0 245.75 L0 275.12 L47.32 275.12 L47.32 245.75 Z" class="st2"/></g><g id="shape4-6" transform="translate(8.26528,-7.08364)"><title>Sheet.4</title><path d="M53.45 222.14 L58.34 222.14 L58.34 220.23 L53.45 220.23 L53.45 222.14 ZM53.45 225.54 L58.34 225.54 L58.34 223.63 L53.45 223.63 L53.45 225.54 ZM41.47 270.69 L38.77 270.69 L40.28 272.37 L43.19 272.37 L41.47 270.69 ZM38.42 267.71 L36.1 267.71 L37.72 269.51 L40.27 269.51 L38.42 267.71 ZM37.32 270.69 L34.62 270.69 L35.81 272.37 L38.72 272.37 L37.32 270.69 ZM34.84 267.71 L32.52 267.71 L33.79 269.51 L36.35 269.51 L34.84 267.71 ZM33.17 270.69 L30.47 270.69 L31.33 272.37 L34.24 272.37 L33.17 270.69 ZM31.27 267.71 L28.95 267.71 L29.88 269.55 L32.44 269.55 L31.27 267.71 ZM29.02 270.69 L26.32 270.69 L26.86 272.37 L29.77 272.37 L29.02 270.69 ZM27.75 267.84 L25.4 267.84 L25.95 269.55 L28.51 269.55 L27.75 267.84 ZM24.87 270.69 L22.17 270.69 L22.38 272.37 L25.29 272.37 L24.87 270.69 ZM24.18 267.98 L21.82 267.98 L22.04 269.66 L24.61 269.66 L24.18 267.98 ZM20.55 267.98 L18.19 267.98 L18.08 269.66 L20.65 269.66 L20.55 267.98 ZM20.71 270.69 L18.01 270.69 L17.9 272.37 L20.81 272.37 L20.71 270.69 ZM16.93 267.98 L14.57 267.98 L14.13 269.66 L16.7 269.66 L16.93 267.98 ZM16.56 270.69 L13.86 270.69 L13.43 272.37 L16.34 272.37 L16.56 270.69 ZM31.37 273.44 L12.32 273.44 L11.83 275.12 L32.19 275.12 L31.37 273.44 ZM13.3 267.98 L10.94 267.98 L10.18 269.66 L12.75 269.66 L13.3 267.98 ZM12.41 270.69 L9.71 270.69 L8.95 272.37 L11.86 272.37 L12.41 270.69 ZM9.67 267.98 L7.31 267.98 L6.22 269.66 L8.79 269.66 L9.67 267.98 ZM8.26 270.69 L5.56 270.69 L4.48 272.37 L7.39 272.37 L8.26 270.69 ZM6.04 267.98 L3.68 267.98 L2.27 269.66 L4.84 269.66 L6.04 267.98 ZM4.11 270.69 L1.41 270.69 L0 272.37 L2.91 272.37 L4.11 270.69 Z" class="st3"/></g></g><g id="group5-9" transform="translate(0.25,-112.126)"><title>PC.5</title><g id="shape6-10" transform="translate(0,-4.72617)"><title>Sheet.6</title><path d="M48.01 257.71 L48.01 263.7 L51.62 263.7 L55.04 267.98 L70.87 267.98 L70.87 213.7 L48.01 213.7 L48.01 221.49 L57.81 221.49 L57.81 257.71 L48.01 257.71 ZM57.81 221.49 L3.53 221.49 L3.53 257.71 L57.81 257.71 L57.81 221.49 ZM60.73 275.12 L51.62 263.7 L9.11 263.7 L0 275.12 L60.73 275.12 ZM35.14 257.71 L25.59 257.71 L25.59 263.7 L35.14 263.7 L35.14 257.71 Z" class="st1"/></g><g id="shape7-12" transform="translate(7.05282,-25.393)"><title>Sheet.7</title><path d="M47.32 245.75 L0 245.75 L0 275.12 L47.32 275.12 L47.32 245.75 Z" class="st2"/></g><g id="shape8-14" transform="translate(8.26528,-7.08364)"><title>Sheet.8</title><path d="M53.45 222.14 L58.34 222.14 L58.34 220.23 L53.45 220.23 L53.45 222.14 ZM53.45 225.54 L58.34 225.54 L58.34 223.63 L53.45 223.63 L53.45 225.54 ZM41.47 270.69 L38.77 270.69 L40.28 272.37 L43.19 272.37 L41.47 270.69 ZM38.42 267.71 L36.1 267.71 L37.72 269.51 L40.27 269.51 L38.42 267.71 ZM37.32 270.69 L34.62 270.69 L35.81 272.37 L38.72 272.37 L37.32 270.69 ZM34.84 267.71 L32.52 267.71 L33.79 269.51 L36.35 269.51 L34.84 267.71 ZM33.17 270.69 L30.47 270.69 L31.33 272.37 L34.24 272.37 L33.17 270.69 ZM31.27 267.71 L28.95 267.71 L29.88 269.55 L32.44 269.55 L31.27 267.71 ZM29.02 270.69 L26.32 270.69 L26.86 272.37 L29.77 272.37 L29.02 270.69 ZM27.75 267.84 L25.4 267.84 L25.95 269.55 L28.51 269.55 L27.75 267.84 ZM24.87 270.69 L22.17 270.69 L22.38 272.37 L25.29 272.37 L24.87 270.69 ZM24.18 267.98 L21.82 267.98 L22.04 269.66 L24.61 269.66 L24.18 267.98 ZM20.55 267.98 L18.19 267.98 L18.08 269.66 L20.65 269.66 L20.55 267.98 ZM20.71 270.69 L18.01 270.69 L17.9 272.37 L20.81 272.37 L20.71 270.69 ZM16.93 267.98 L14.57 267.98 L14.13 269.66 L16.7 269.66 L16.93 267.98 ZM16.56 270.69 L13.86 270.69 L13.43 272.37 L16.34 272.37 L16.56 270.69 ZM31.37 273.44 L12.32 273.44 L11.83 275.12 L32.19 275.12 L31.37 273.44 ZM13.3 267.98 L10.94 267.98 L10.18 269.66 L12.75 269.66 L13.3 267.98 ZM12.41 270.69 L9.71 270.69 L8.95 272.37 L11.86 272.37 L12.41 270.69 ZM9.67 267.98 L7.31 267.98 L6.22 269.66 L8.79 269.66 L9.67 267.98 ZM8.26 270.69 L5.56 270.69 L4.48 272.37 L7.39 272.37 L8.26 270.69 ZM6.04 267.98 L3.68 267.98 L2.27 269.66 L4.84 269.66 L6.04 267.98 ZM4.11 270.69 L1.41 270.69 L0 272.37 L2.91 272.37 L4.11 270.69 Z" class="st3"/></g></g><g id="group9-17" transform="translate(0.25,-20)"><title>PC.9</title><g id="shape10-18" transform="translate(0,-4.72617)"><title>Sheet.10</title><path d="M48.01 257.71 L48.01 263.7 L51.62 263.7 L55.04 267.98 L70.87 267.98 L70.87 213.7 L48.01 213.7 L48.01 221.49 L57.81 221.49 L57.81 257.71 L48.01 257.71 ZM57.81 221.49 L3.53 221.49 L3.53 257.71 L57.81 257.71 L57.81 221.49 ZM60.73 275.12 L51.62 263.7 L9.11 263.7 L0 275.12 L60.73 275.12 ZM35.14 257.71 L25.59 257.71 L25.59 263.7 L35.14 263.7 L35.14 257.71 Z" class="st1"/></g><g id="shape11-20" transform="translate(7.05282,-25.393)"><title>Sheet.11</title><path d="M47.32 245.75 L0 245.75 L0 275.12 L47.32 275.12 L47.32 245.75 Z" class="st2"/></g><g id="shape12-22" transform="translate(8.26528,-7.08364)"><title>Sheet.12</title><path d="M53.45 222.14 L58.34 222.14 L58.34 220.23 L53.45 220.23 L53.45 222.14 ZM53.45 225.54 L58.34 225.54 L58.34 223.63 L53.45 223.63 L53.45 225.54 ZM41.47 270.69 L38.77 270.69 L40.28 272.37 L43.19 272.37 L41.47 270.69 ZM38.42 267.71 L36.1 267.71 L37.72 269.51 L40.27 269.51 L38.42 267.71 ZM37.32 270.69 L34.62 270.69 L35.81 272.37 L38.72 272.37 L37.32 270.69 ZM34.84 267.71 L32.52 267.71 L33.79 269.51 L36.35 269.51 L34.84 267.71 ZM33.17 270.69 L30.47 270.69 L31.33 272.37 L34.24 272.37 L33.17 270.69 ZM31.27 267.71 L28.95 267.71 L29.88 269.55 L32.44 269.55 L31.27 267.71 ZM29.02 270.69 L26.32 270.69 L26.86 272.37 L29.77 272.37 L29.02 270.69 ZM27.75 267.84 L25.4 267.84 L25.95 269.55 L28.51 269.55 L27.75 267.84 ZM24.87 270.69 L22.17 270.69 L22.38 272.37 L25.29 272.37 L24.87 270.69 ZM24.18 267.98 L21.82 267.98 L22.04 269.66 L24.61 269.66 L24.18 267.98 ZM20.55 267.98 L18.19 267.98 L18.08 269.66 L20.65 269.66 L20.55 267.98 ZM20.71 270.69 L18.01 270.69 L17.9 272.37 L20.81 272.37 L20.71 270.69 ZM16.93 267.98 L14.57 267.98 L14.13 269.66 L16.7 269.66 L16.93 267.98 ZM16.56 270.69 L13.86 270.69 L13.43 272.37 L16.34 272.37 L16.56 270.69 ZM31.37 273.44 L12.32 273.44 L11.83 275.12 L32.19 275.12 L31.37 273.44 ZM13.3 267.98 L10.94 267.98 L10.18 269.66 L12.75 269.66 L13.3 267.98 ZM12.41 270.69 L9.71 270.69 L8.95 272.37 L11.86 272.37 L12.41 270.69 ZM9.67 267.98 L7.31 267.98 L6.22 269.66 L8.79 269.66 L9.67 267.98 ZM8.26 270.69 L5.56 270.69 L4.48 272.37 L7.39 272.37 L8.26 270.69 ZM6.04 267.98 L3.68 267.98 L2.27 269.66 L4.84 269.66 L6.04 267.98 ZM4.11 270.69 L1.41 270.69 L0 272.37 L2.91 272.37 L4.11 270.69 Z" class="st3"/></g></g><g id="group18-25" transform="translate(175.998,-68.189)"><title>Proxy server</title><desc>VPS</desc><g id="shape19-26" transform="translate(57.7871,-37.2047)"><title>Sheet.19</title><path d="M0 275.12 L63.33 275.12" class="st4"/></g><g id="shape20-29" transform="translate(37.7741,-70.5137)"><title>Sheet.20</title><path d="M34.68 275.12 A39.7579 39.3719 -180 1 0 0 217.29 C2.67 217.22 5.34 217.42 7.97 217.89 C12.41 218.68 16.71 220.25 20.61 222.49 C24.51 224.74 28.01 227.66 30.9 231.09 C33.79 234.52 36.08 238.45 37.61 242.65 C39.15 246.85 39.94 251.31 39.94 255.78 C39.94 258.13 39.73 260.48 39.29 262.79 C38.86 265.1 38.22 267.38 37.36 269.57 C36.62 271.49 35.72 273.34 34.68 275.12 Z" class="st5"/></g><g id="shape21-31" transform="translate(121.119,-9.48274)"><title>Sheet.21</title><rect width="37.621" height="58.932" x="0" y="216.186" class="st6"/></g><g id="shape22-33" transform="translate(0,-51.4587)"><title>Sheet.22</title><path d="M-0 238.89 A38.8918 38.4555 -180 0 0 0.78 244.67 L2.46 244.22 C2.09 242.46 1.85 240.68 1.74 238.89 L0 238.89 ZM77.66 234.55 A38.8918 38.4555 -180 0 0 76.88 228.78 L75.2 229.23 C75.57 230.98 75.81 232.76 75.92 234.55 L77.66 234.55 ZM30.99 274.39 A38.8918 38.4555 -180 0 0 36.66 275.12 L36.66 273.38 C35.78 273.33 34.91 273.25 34.04 273.13 C33.17 273.02 32.3 272.88 31.44 272.71 L30.99 274.39 ZM46.67 199.06 A38.8918 38.4555 -180 0 0 41 198.33 L41 200.07 C42.26 200.14 43.52 200.28 44.77 200.48 C45.26 200.56 45.74 200.64 46.22 200.74 L46.67 199.06 ZM46.22 272.71 C44.5 273.05 42.76 273.27 41 273.38 L41 275.12 A38.8918 38.4555 -180 0 0 46.67 274.39 L46.22 272.71 ZM31.44 200.74 C31.54 200.72 31.64 200.7 31.74 200.68 C33.36 200.37 35.01 200.16 36.66 200.07 L36.66 198.33 A38.8918 38.4555 -180 0 0 30.99 199.06 L31.44 200.74 ZM55.32 269.63 C53.74 270.4 52.1 271.06 50.43 271.61 L50.88 273.29 A38.8918 38.4555 -180 0 0 56.19 271.13 L55.32 269.63 ZM22.34 203.82 C23.92 203.05 25.56 202.38 27.23 201.84 L26.78 200.16 A38.8918 38.4555 -180 0 0 21.47 202.31 L22.34 203.82 ZM5.7 253.34 C5.22 252.4 4.78 251.45 4.38 250.47 C4.1 249.79 3.84 249.1 3.61 248.41 L1.93 248.86 A38.8918 38.4555 -180 0 0 4.19 254.21 L5.7 253.34 ZM71.96 220.1 C72.62 221.38 73.2 222.7 73.7 224.05 C73.82 224.38 73.94 224.71 74.05 225.04 L75.73 224.59 A38.8918 38.4555 -180 0 0 73.47 219.23 L71.96 220.1 ZM63.35 264.31 C62.01 265.47 60.59 266.53 59.1 267.49 L59.97 269 A38.8918 38.4555 -180 0 0 64.58 265.54 L63.35 264.31 ZM14.31 209.13 C15.65 207.98 17.07 206.91 18.56 205.95 L17.69 204.45 A38.8918 38.4555 -180 0 0 13.08 207.9 L14.31 209.13 ZM11.2 261.28 C10.01 259.96 8.91 258.56 7.91 257.08 L6.4 257.95 A38.8918 38.4555 -180 0 0 9.97 262.51 L11.2 261.28 ZM66.45 212.17 C66.68 212.42 66.91 212.68 67.13 212.93 C68.07 214.02 68.94 215.17 69.75 216.36 L71.26 215.49 A38.8918 38.4555 -180 0 0 67.68 210.94 L66.45 212.17 ZM69.75 257.08 C69.38 257.63 68.99 258.18 68.59 258.71 C67.92 259.6 67.2 260.45 66.45 261.28 L67.68 262.51 A38.8918 38.4555 -180 0 0 71.26 257.95 L69.75 257.08 ZM7.91 216.36 C8.5 215.49 9.13 214.64 9.79 213.82 C10.24 213.26 10.72 212.71 11.2 212.17 L9.97 210.94 A38.8918 38.4555 -180 0 0 6.4 215.49 L7.91 216.36 ZM18.56 267.49 C17.07 266.53 15.65 265.47 14.31 264.31 L13.08 265.54 A38.8918 38.4555 -180 0 0 17.69 269 L18.56 267.49 ZM59.1 205.95 C60.59 206.91 62.01 207.98 63.35 209.13 L64.58 207.9 A38.8918 38.4555 -180 0 0 59.97 204.45 L59.1 205.95 ZM74.05 248.41 C73.48 250.1 72.78 251.75 71.96 253.34 L73.47 254.21 A38.8918 38.4555 -180 0 0 75.73 248.86 L74.05 248.41 ZM3.61 225.04 C4.18 223.34 4.88 221.7 5.7 220.1 L4.19 219.23 A38.8918 38.4555 -180 0 0 1.93 224.59 L3.61 225.04 ZM27.23 271.6 C25.56 271.06 23.92 270.4 22.34 269.63 L21.47 271.13 A38.8918 38.4555 -180 0 0 26.78 273.29 L27.23 271.6 ZM50.43 201.84 C52.1 202.38 53.74 203.05 55.32 203.82 L56.19 202.31 A38.8918 38.4555 -180 0 0 50.88 200.16 L50.43 201.84 ZM1.74 234.55 C1.85 232.76 2.09 230.98 2.46 229.23 L0.78 228.78 A38.8918 38.4555 -180 0 0 -0 234.55 L1.74 234.55 ZM75.92 238.89 C75.81 240.68 75.57 242.46 75.2 244.22 L76.88 244.67 A38.8918 38.4555 -180 0 0 77.66 238.89 L75.92 238.89 ZM58.27 261.79 L52.36 261.79 L51.36 263.77 L56.46 263.79 L58.27 261.79 ZM19.85 261.79 L21.28 263.79 L25.53 263.77 L24.67 261.83 L19.85 261.79 ZM35.02 263.69 L35.03 261.68 L30.76 261.68 L31.54 263.5 L35.02 263.69 ZM45.49 263.69 L46.6 261.68 L42.44 261.68 L42.44 263.77 L45.49 263.69 ZM58.27 210.89 L56.46 208.89 L51.36 208.9 L52.36 210.89 L58.27 210.89 ZM19.85 210.89 L24.67 210.85 L25.53 208.9 L21.28 208.89 L19.85 210.89 ZM35.02 208.99 L31.54 209.18 L30.76 210.99 L35.03 210.99 L35.02 208.99 ZM45.49 208.99 L42.44 208.9 L42.44 210.99 L46.6 210.99 L45.49 208.99 ZM71.81 237.72 L74.27 237.72 L74.27 235.72 L71.81 235.72 L71.81 237.72 ZM70.82 221.14 L68.68 221.14 L69.29 223.14 L71.5 223.14 L70.82 221.14 ZM68.42 240.71 L70.43 240.71 C70.57 239.27 70.56 238.25 70.56 236.76 C70.56 235.17 70.56 234.11 70.4 232.56 L68.38 232.56 C68.56 234.12 68.56 235.18 68.56 236.76 C68.56 238.24 68.57 239.26 68.42 240.71 ZM69.4 226.42 C68.63 223.14 67.82 221.11 66.35 218.16 L64.26 218.16 C65.71 221.08 66.54 223.13 67.35 226.42 L69.4 226.42 ZM66.18 237.72 L66.18 235.72 L58.24 235.72 L58.28 237.72 L66.18 237.72 ZM58.71 206.17 L56.84 206.45 C58.96 208.63 60.23 210.55 61.9 213.36 L63.97 213.36 C62.36 210.65 60.85 208.47 58.71 206.17 ZM63.58 221.14 L56.01 221.14 L56.62 223.14 L64.26 223.14 L63.58 221.14 ZM53.36 240.71 L55.38 240.71 C55.48 239.22 55.46 238.17 55.46 236.66 C55.46 235.11 55.48 234.05 55.38 232.53 L53.36 232.53 C53.47 234.05 53.45 235.11 53.45 236.66 C53.45 238.17 53.46 239.22 53.36 240.71 ZM54.73 226.42 C54.25 223.22 53.84 221.2 52.94 218.16 L50.9 218.16 C51.8 221.19 52.22 223.22 52.7 226.42 L54.73 226.42 ZM69.01 252.08 L70.65 252.08 L71.02 250.08 L69.69 250.08 L69.01 252.08 ZM66.65 254.82 C67.96 252.02 68.6 249.86 69.31 246.77 L67.26 246.77 C66.53 249.86 65.86 252.03 64.5 254.82 L66.65 254.82 ZM62.69 259.23 C60.92 262.04 59.74 263.99 57.38 266.25 L59.96 266.25 C62.19 263.93 63.25 261.99 64.93 259.23 L62.69 259.23 ZM63.58 252.08 L64.26 250.08 L56.54 250.08 L56.16 252.08 L63.58 252.08 ZM52.98 254.92 C53.8 252.04 54.36 249.79 54.8 246.77 L52.76 246.77 C52.3 249.79 51.73 252.04 50.9 254.92 L52.98 254.92 ZM49.6 266.25 C50.86 263.68 51.02 261.96 51.95 259.23 L49.85 259.23 C48.9 261.97 48.74 263.69 47.48 266.25 L49.6 266.25 ZM51.36 213.36 C50.33 210.53 49.69 208.92 48.31 206.27 L46.28 206.27 C47.64 208.91 48.27 210.52 49.31 213.36 L51.36 213.36 ZM49.56 221.14 L42.44 221.14 L42.44 223.14 L50.13 223.14 L49.56 221.14 ZM42.44 237.72 L50.36 237.72 L50.36 235.72 L42.44 235.72 L42.44 237.72 ZM49.87 252.08 L50.36 250.08 L42.44 250.08 L42.44 252.08 L49.87 252.08 ZM37.83 202.45 L39.83 202.45 L39.83 198.33 L37.83 198.33 L37.83 202.45 ZM37.83 213.36 L39.83 213.36 L39.83 206.27 L37.83 206.27 L37.83 213.36 ZM37.83 226.5 L39.83 226.5 L39.83 218.36 L37.83 218.36 L37.83 226.5 ZM37.83 240.71 L39.83 240.71 L39.83 232.56 L37.83 232.56 L37.83 240.71 ZM37.83 254.92 L39.83 254.92 L39.83 246.77 L37.83 246.77 L37.83 254.92 ZM37.83 266.25 L39.83 266.25 L39.83 259.23 L37.83 259.23 L37.83 266.25 ZM37.83 270.95 L37.83 275.07 L39.83 275.07 L39.83 270.95 L37.83 270.95 ZM26.9 250.08 L27.62 252.08 L35.02 252.08 L35.02 250.08 L26.9 250.08 ZM26.49 223.14 L35.02 223.14 L35.02 221.14 L26.89 221.14 L26.49 223.14 ZM26.3 237.72 L35.02 237.72 L35.02 235.72 L26.3 235.72 L26.3 237.72 ZM27.58 213.36 C28.62 210.52 29.02 208.91 30.37 206.27 L28.35 206.27 C26.97 208.92 26.56 210.53 25.53 213.36 L27.58 213.36 ZM30.26 266.25 C29 263.69 28.3 261.97 27.36 259.23 L25.26 259.23 C26.19 261.96 26.88 263.68 28.14 266.25 L30.26 266.25 ZM23.61 254.92 L25.69 254.92 C24.86 252.04 24.64 249.79 24.19 246.77 L22.14 246.77 C22.58 249.79 22.79 252.04 23.61 254.92 ZM22.14 226.42 L24.17 226.42 C24.65 223.22 25.07 221.19 25.97 218.16 L23.92 218.16 C23.02 221.2 22.62 223.22 22.14 226.42 ZM23.53 240.71 C23.43 239.22 23.44 238.17 23.44 236.66 C23.44 235.11 23.42 234.05 23.53 232.53 L21.51 232.53 C21.41 234.05 21.43 235.11 21.43 236.66 C21.43 238.17 21.41 239.22 21.51 240.71 L23.53 240.71 ZM14.94 221.14 L14.15 223.14 L20.37 223.14 L21.13 221.14 L14.94 221.14 ZM19.64 206.18 C17.5 208.48 15.6 210.65 13.99 213.36 L16.06 213.36 C17.73 210.55 19.66 208.36 21.79 206.18 L19.64 206.18 ZM14.68 252.08 L20.98 252.08 L20.3 250.08 L13.92 250.08 L14.68 252.08 ZM20.58 266.25 C18.39 264 17.06 261.88 15.41 259.15 L13.2 259.15 C14.76 261.84 15.99 263.96 18.08 266.25 L20.58 266.25 ZM11.77 237.72 L19.06 237.72 L19.06 235.72 L11.77 235.72 L11.77 237.72 ZM9.12 226.42 L11.18 226.42 C11.98 223.13 12.46 221.08 13.91 218.16 L11.82 218.16 C10.35 221.11 9.89 223.14 9.12 226.42 ZM11.77 254.92 L13.91 254.92 C12.56 252.12 11.88 249.86 11.15 246.77 L9.1 246.77 C9.81 249.86 10.45 252.11 11.77 254.92 ZM6.53 252.08 L9.21 252.08 L8.53 250.08 L5.78 250.08 L6.53 252.08 ZM6.2 221.14 L5.4 223.14 L8.01 223.14 L8.76 221.14 L6.2 221.14 ZM3.33 237.72 L5.78 237.72 L5.78 235.72 L3.33 235.72 L3.33 237.72 ZM9.97 240.71 C9.82 239.26 9.87 238.24 9.87 236.76 C9.87 235.18 9.95 234.12 10.13 232.56 L8.11 232.56 C7.94 234.11 7.87 235.17 7.87 236.76 C7.87 238.25 7.81 239.27 7.96 240.71 L9.97 240.71 Z" class="st7"/></g><g id="shape23-35" transform="translate(40.8246,-19.142)"><title>Sheet.23</title><path d="M50.33 167.54 L64.18 167.54 C58.75 157.35 48.69 150.01 36.8 148.33 C41.11 151.21 46.67 158.59 50.33 167.54 ZM33.43 149.39 L33.43 167.54 L47.81 167.54 C43.27 157.02 36.16 149.42 33.43 149.39 ZM31.08 149.41 C28.23 149.62 20.26 155.96 15.94 167.54 L31.08 167.54 L31.08 149.41 ZM9.61 167.54 L13.42 167.54 C16.52 157.39 22.9 150.71 27.62 148.18 C15.89 149.44 5.81 156.2 0 165.83 C3.33 166 6.55 166.59 9.61 167.54 ZM30.84 183.69 L31.08 183.69 L31.08 169.89 L15.43 169.89 C21.72 173.04 27.04 177.82 30.84 183.69 ZM33.43 183.69 L51.79 183.69 C51.54 178.88 50.39 174.19 48.76 169.89 L33.43 169.89 L33.43 183.69 ZM65.32 169.89 L51.24 169.89 C52.82 174.29 53.9 179 54.14 183.69 L68.46 183.69 C68.31 178.79 67.2 174.13 65.32 169.89 ZM65.32 199.83 C67.2 195.59 68.31 190.94 68.46 186.04 L54.19 186.04 C54.14 190.47 53.31 195.24 51.91 199.83 L65.32 199.83 ZM33.43 186.04 L33.43 188.36 C35.1 191.92 36.25 195.78 36.78 199.83 L49.43 199.83 C50.88 195.34 51.78 190.58 51.83 186.04 L33.43 186.04 L33.43 186.04 ZM37.01 202.18 C37.08 203.1 37.12 204.02 37.12 204.96 C37.12 210.41 36.01 215.6 33.99 220.32 C39.42 218.93 45.15 211.37 48.61 202.18 L37.01 202.18 L37.01 202.18 ZM51.14 202.18 C48.19 210.53 43.38 217.95 37.98 221.19 C49.35 219.21 58.93 212.03 64.17 202.18 L51.14 202.18 ZM94.79 266.18 L113.14 266.18 L113.14 264.71 L94.79 264.71 L94.79 266.18 ZM94.79 270.65 L113.14 270.65 L113.14 269.18 L94.79 269.18 L94.79 270.65 ZM94.79 275.12 L113.14 275.12 L113.14 273.64 L94.79 273.64 L94.79 275.12 ZM112.76 257.35 A2.27452 2.27452 -180 1 0 108.21 257.35 A2.27452 2.27452 -180 1 0 112.76 257.35 Z" class="st1"/></g><g id="shape18-37"><text x="65.48" y="236.58" class="st8">VPS</text></g></g><g id="group24-39" transform="translate(425.447,-69.6063)"><title>Terminal</title><desc>内网PC</desc><g id="shape25-40" transform="translate(0,-6.633)"><title>Sheet.25</title><path d="M107.93 175 L6.6 175 L6.6 242.63 L107.93 242.63 L107.93 175 ZM113.39 275.12 L96.38 253.8 L17.01 253.8 L0 275.12 L113.39 275.12 ZM65.6 242.63 L47.78 242.63 L47.78 253.8 L65.6 253.8 L65.6 242.63 Z" class="st1"/></g><g id="shape26-42" transform="translate(13.1672,-45.2166)"><title>Sheet.26</title><path d="M88.34 220.29 L0 220.29 L0 275.12 L88.34 275.12 L88.34 220.29 Z" class="st6"/></g><g id="shape27-44" transform="translate(15.4308,-11.0342)"><title>Sheet.27</title><path d="M77.43 266.85 L72.39 266.85 L75.21 269.98 L80.64 269.98 L77.43 266.85 ZM71.73 261.29 L67.39 261.29 L70.42 264.66 L75.18 264.66 L71.73 261.29 ZM69.68 266.85 L64.64 266.85 L66.85 269.98 L72.28 269.98 L69.68 266.85 ZM65.05 261.29 L60.71 261.29 L63.09 264.66 L67.85 264.66 L65.05 261.29 ZM61.92 266.85 L56.88 266.85 L58.49 269.98 L63.93 269.98 L61.92 266.85 ZM58.39 261.29 L54.04 261.29 L55.78 264.73 L60.56 264.73 L58.39 261.29 ZM54.17 266.85 L49.13 266.85 L50.14 269.98 L55.57 269.98 L54.17 266.85 ZM51.8 261.52 L47.43 261.52 L48.45 264.73 L53.23 264.73 L51.8 261.52 ZM46.42 266.85 L41.38 266.85 L41.78 269.98 L47.22 269.98 L46.42 266.85 ZM45.15 261.79 L40.74 261.79 L41.14 264.92 L45.94 264.92 L45.15 261.79 ZM38.37 261.79 L33.97 261.79 L33.76 264.92 L38.56 264.92 L38.37 261.79 ZM38.67 266.85 L33.63 266.85 L33.42 269.98 L38.86 269.98 L38.67 266.85 ZM31.6 261.79 L27.19 261.79 L26.38 264.92 L31.18 264.92 L31.6 261.79 ZM30.92 266.85 L25.88 266.85 L25.07 269.98 L30.5 269.98 L30.92 266.85 ZM58.56 271.98 L23.01 271.98 L22.09 275.12 L60.1 275.12 L58.56 271.98 ZM24.82 261.79 L20.42 261.79 L19 264.92 L23.8 264.92 L24.82 261.79 ZM23.17 266.85 L18.13 266.85 L16.71 269.98 L22.15 269.98 L23.17 266.85 ZM18.05 261.79 L13.65 261.79 L11.62 264.92 L16.42 264.92 L18.05 261.79 ZM15.42 266.85 L10.38 266.85 L8.36 269.98 L13.79 269.98 L15.42 266.85 ZM11.27 261.79 L6.87 261.79 L4.24 264.92 L9.04 264.92 L11.27 261.79 ZM7.67 266.85 L2.63 266.85 L0 269.98 L5.43 269.98 L7.67 266.85 Z" class="st3"/></g><g id="shape24-47"><text x="29.24" y="209.72" class="st9">内网<tspan class="st10">PC</tspan></text></g></g><g id="shape28-50" transform="translate(432.044,-119.213)"><title>Dynamic connector</title><path d="M-10.2 268.03 L-10.56 268.03 L-86.75 268.03" class="st11"/></g><g id="shape29-59" transform="translate(35.6831,-140.472)"><title>Dynamic connector.29</title><path d="M0 268.03 L133.27 268.03" class="st13"/></g><g id="shape30-65" transform="translate(71.1161,-44.0945)"><title>Dynamic connector.30</title><path d="M0 275.12 L184.25 275.12 L184.25 258.06" class="st13"/></g><g id="shape31-70" transform="translate(71.1161,-251.024)"><title>Dynamic connector.31</title><path d="M0 275.12 L184.25 275.12 L184.25 292.17" class="st13"/></g></g></svg>